<?xml version="1.0" encoding="UTF-8" standalone="no"?>
<svg viewBox="0 0 8 8" version="1.1" xmlns="http://www.w3.org/2000/svg">
    <rect width="8" height="8" x="0" y="0" fill="#080" />

    <g stroke="#000" stroke-width="0.1">
        <path d="M0,1 8,1" />
        <path d="M0,2 8,2" />
        <path d="M0,3 8,3" />
        <path d="M0,4 8,4" />
        <path d="M0,5 8,5" />
        <path d="M0,6 8,6" />
        <path d="M0,7 8,7" />

        <path d="M1,0 1,8" />
        <path d="M2,0 2,8" />
        <path d="M3,0 3,8" />
        <path d="M4,0 4,8" />
        <path d="M5,0 5,8" />
        <path d="M6,0 6,8" />
        <path d="M7,0 7,8" />
    </g>

    <g fill="#000">
        <circle r="0.15" cx="2" cy="2" />
        <circle r="0.15" cx="2" cy="6" />
        <circle r="0.15" cx="6" cy="2" />
        <circle r="0.15" cx="6" cy="6" />
    </g>
</svg>