<?xml version="1.0" encoding="UTF-8" standalone="no"?>
<svg viewBox="0 0 60 60" version="1.1" xmlns="http://www.w3.org/2000/svg">
    <path id="3" d="
        M 18,20
        A 12,12 180 0 1 42,20
        A 12,12 90 0 1 30,31
        L 25,31
        L 25,29
        L 30,29
        A 10,10 90 0 0 40,20
        A 10,10 180 0 0 20,20
        Z
        M 30,29
        A 12,12 90 0 1 42,40
        A 12,12 180 0 1 18,40
        L 20,40
        A 10,10 180 0 0 40,40
        A 10,10 90 0 0 30,31
        Z
    " />
</svg>