<?xml version="1.0" encoding="UTF-8" standalone="no"?>
<svg viewBox="0 0 60 60" version="1.1" xmlns="http://www.w3.org/2000/svg">
    <path id="8" d="
        M 18,20
        A 12,12 180 0 1 42,20
        A 12,11 180 0 1 18,20
        M 20,20
        A 10,9 180 0 0 40,20
        A 10,10 180 0 0 20,20
        Z
        M 18,40
        A 12,11 180 0 1 42,40
        A 12,12 180 0 1 18,40
        M 20,40
        A 10,10 180 0 0 40,40
        A 10,9 180 0 0 20,40
        Z
    " />
</svg>