<?xml version="1.0" encoding="UTF-8" standalone="no"?>
<svg id="root" viewBox="0 0 720 720" version="1.1" xmlns="http://www.w3.org/2000/svg">
    <rect width="720" height="720" x="0" y="0" fill="#ee6" />

    <g stroke="black" stroke-width="2">
        <path d="M0,80 720,80" />
        <path d="M0,160 720,160" />
        <path d="M0,240 720,240" />
        <path d="M0,320 720,320" />
        <path d="M0,400 720,400" />
        <path d="M0,480 720,480" />
        <path d="M0,560 720,560" />
        <path d="M0,640 720,640" />

        <path d="M80 ,0 80 ,720" />
        <path d="M160,0 160,720" />
        <path d="M240,0 240,720" />
        <path d="M320,0 320,720" />
        <path d="M400,0 400,720" />
        <path d="M480,0 480,720" />
        <path d="M560,0 560,720" />
        <path d="M640,0 640,720" />
    </g>

    <g>
        <circle cx="240" cy="240" r="4" />
        <circle cx="240" cy="480" r="4" />
        <circle cx="480" cy="240" r="4" />
        <circle cx="480" cy="480" r="4" />
    </g>
</svg>