<svg viewBox="0 0 8 8" version="1.1" xmlns="http://www.w3.org/2000/svg">
    <rect width="8" height="8" x="0" y="0" fill="#ccc" />

    <g fill="#333">
        <path id="c" d="
            M 0, 0
            L 1, 0
            L 1, 8
            L 2, 8
            L 2, 0
            L 3, 0
            L 3, 8
            L 4, 8
            L 4, 0
            L 5, 0
            L 5, 8
            L 6, 8
            L 6, 0
            L 7, 0
            L 7, 8
            L 8, 8
            L 8, 0
            L 0, 0
            L 0, 1
            L 8, 1
            L 8, 2
            L 0, 2
            L 0, 3
            L 8, 3
            L 8, 4
            L 0, 4
            L 0, 5
            L 8, 5
            L 8, 6
            L 0, 6
            L 0, 7
            L 8, 7
            L 8, 8
            L 0, 8
            Z
        " />
    </g>
</svg>