<?xml version="1.0" encoding="UTF-8" standalone="no"?>
<svg viewBox="0 0 60 60" version="1.1" xmlns="http://www.w3.org/2000/svg">
    <style>
        .b {
            fill: black;
        }

        .w {
            fill: white
        }
    </style>
    <path class="b" d="
        M 45,48
        C 45,42 49,29 49,21
        C 49,10 42, 7 30, 5
        L 27,10
        C 20,13 20,11 11,23
        L 14,28
        C 19,29 29,27 34,25
        C 25,32 19,33 15,48
        L 10,48
        L 10,54
        L 50,54
        L 50,48
        Z
        " />
    <path class="w" d="
        M 39,49
        C 39,42 45,29 45,21
        C 45,12 42,9 30, 8
        L 28,10
        C 23,13 20,11 12,23
        L 15,27
        C 20,28 26,27 34,25
        C 26,32 19,33 16,49
        H 11
        V 53
        H 49
        V 49
        Z
        " />
    <circle class="b" cx="27" cy="15" r="1" />
</svg>