<?xml version="1.0" encoding="UTF-8" standalone="no"?>
<svg viewBox="0 0 60 60" version="1.1" id="root" xmlns="http://www.w3.org/2000/svg">
    <symbol id="pawn" viewBox="0 0 60 60">
        <path d="
            M 25,20
            L 35,20
            L 40,55
            L 20,55
            Z
        " />
        <circle cx="30" cy="20" r="10" />
        <rect x="20" y="27" width="20" height="5" />
        <rect x="10" y="52" width="40" height="5" />
    </symbol>

    <symbol id="knight" viewBox="0 0 60 60">
        <path d="
            M 45,55
            L 45,20
            A 15,15 90 0 0 30,5
            L 30,55
            Z
        " />
        <path d="
            M 40,55
            L 40,20
            A 10,10 135 0 0 23,13
            L 17,19
            A 5,5 180 0 0 17,29
            L 25,29
            C 25,40 15,40 15,55
            Z
        " />
        <circle cx="27" cy="18" r="1" />
        <rect x="10" y="52" width="40" height="5" />
    </symbol>

    <symbol id="bishop" viewBox="0 0 60 60">
        <rect x="22" y="45" width="16" height="7" />
        <path d="
            M 20,45
            A 22,22 0 0 1 30,8
            A 22,22 0 0 1 40,45
            Z
        " />
        <path d="
            M 39,13
            L 30,22
        " />
        <circle cx="30" cy="8" r="3" />
        <rect x="10" y="52" width="40" height="5" />
    </symbol>

    <symbol id="rook" viewBox="0 0 60 60">
        <rect x="20" y="20" width="20" height="15" />
        <path d="
            M 20,35
            L 40,35
            L 45,55
            L 15,55
            Z
        " />
        <path d="
            M 15,20
            L 15,10
            L 20,10
            L 20,15
            L 25,15
            L 25,10
            L 45,10
            L 45,20
            Z
        " />
        <rect x="17" y="33" width="26" height="5" />
        <rect x="10" y="52" width="40" height="5" />
    </symbol>

    <symbol id="queen" viewBox="0 0 60 60">
        <path d="
            M 20,15
            L 22,30
            L 22,35
            L 13,55
            L 47,55
            L 38,35
            L 38,30
            L 40,15
            Z
        " />
        <path d="
            M 20,11
            A 10,6 0 0 1 40,11
        " />
        <path d="
            M 16,15
            L 15,10
            L 20,11
            L 30,10
            L 40,11
            L 45,10
            L 44,15
            Z
        " />
        <circle cx="30" cy="5" r="2" />
        <rect x="20" y="30" width="20" height="5" />
        <rect x="10" y="52" width="40" height="5" />
    </symbol>

    <symbol id="king" viewBox="0 0 60 60">
        <path d="
            M 15,55
            L 20,25
            L 40,25
            L 45,55
            Z
        " />
        <path d="
            M 27,10
            L 27,5
            A 3,3 0 0 1 33,5
            L 33,10
            Z
        " />
        <path d="
            M 20,25
            L 15,10
            L 30,7
            L 45,10
            L 40,25
            Z
        " />
        <rect x="18" y="23" width="24" height="5" />
        <rect x="10" y="52" width="40" height="5" />
    </symbol>
</svg>