<svg viewBox="0 0 156 100" version="1.1" xmlns="http://www.w3.org/2000/svg">
    <rect width="70" height="90" x="5" y="5" fill="#150" />
    <rect width="70" height="90" x="81" y="5" fill="#150" />

    <path d="M 15, 5  20,45  25, 5" fill="white" />
    <path d="M 35, 5  40,45  45, 5" fill="white" />
    <path d="M 55, 5  60,45  65, 5" fill="white" />
    <path d="M 81, 5  86,45  91, 5" fill="white" />
    <path d="M101, 5 106,45 111, 5" fill="white" />
    <path d="M121, 5 126,45 131, 5" fill="white" />
    <path d="M141,95 136,55 131,95" fill="white" />
    <path d="M121,95 116,55 111,95" fill="white" />
    <path d="M101,95  96,55  91,95" fill="white" />
    <path d="M 75,95  70,55  65,95" fill="white" />
    <path d="M 55,95  50,55  45,95" fill="white" />
    <path d="M 35,95  30,55  25,95" fill="white" />

    <path d="M 25, 5  30,45  35, 5" fill="black" />
    <path d="M 45, 5  50,45  55, 5" fill="black" />
    <path d="M 65, 5  70,45  75, 5" fill="black" />
    <path d="M 91, 5  96,45 101, 5" fill="black" />
    <path d="M111, 5 116,45 121, 5" fill="black" />
    <path d="M131, 5 136,45 141, 5" fill="black" />
    <path d="M131,95 126,55 121,95" fill="black" />
    <path d="M111,95 106,55 101,95" fill="black" />
    <path d="M 91,95  86,55  81,95" fill="black" />
    <path d="M 65,95  60,55  55,95" fill="black" />
    <path d="M 45,95  40,55  35,95" fill="black" />
    <path d="M 25,95  20,55  15,95" fill="black" />

    <path d="
        M  5, 5  75, 5  75,95  5,95 Z
        M 15, 5  15,95
        M 81, 5 151, 5 151,95 81,95 Z
        M141, 5 141,95
    " fill="none" stroke="black" />
</svg>