<svg viewBox="0 0 360 120" version="1.1" xmlns="http://www.w3.org/2000/svg">
    <symbol id="k" viewBox="0 0 60 60">
        <path d="
            M 15, 55
            L 20, 25
            L 40, 25
            L 45, 55
            Z
        " />
        <path d="
            M 24, 10
            L 24, 6
            L 27, 6
            L 27, 3
            L 33, 3
            L 33, 6
            L 36, 6
            L 36, 10
            Z
        " />
        <path d="
            M 20, 25
            L 15, 10
            L 45, 10
            L 40, 25
            Z
        " />
        <rect x="18" y="23" width="24" height="5" />
        <rect x="10" y="52" width="40" height="5" />
    </symbol>

    <symbol id="q" viewBox="0 0 60 60">
        <path d="
            M 22, 35
            L 13, 55
            L 47, 55
            L 38, 35
            Z
        " />
        <path d="
            M 22, 15
            L 20, 13
            A 10, 6 0 0 1 40, 13
            L 38, 15
            Z
        " />
        <path d="
            M 22, 30
            L 38, 30
            L 42, 10
            L 35, 15
            L 30, 10
            L 25, 15
            L 18, 10
            Z
        " />
        <circle cx="30" cy="5" r="2" />
        <rect x="20" y="30" width="20" height="5" />
        <rect x="10" y="52" width="40" height="5" />
    </symbol>

    <symbol id="r" viewBox="0 0 60 60">
        <rect x="20" y="20" width="20" height="15" />
        <path d="
            M 20,35
            L 40,35
            L 45,55
            L 15,55
            Z
        " />
        <path d="
            M 15,20
            L 15,10
            L 20,10
            L 20,15
            L 25,15
            L 25,10
            L 45,10
            L 45,20
            Z
        " />
        <rect x="17" y="33" width="26" height="5" />
        <rect x="10" y="52" width="40" height="5" />
    </symbol>

    <symbol id="b" viewBox="0 0 60 60">
        <rect x="22" y="45" width="16" height="7" />
        <path d="
            M 20,45
            A 22,22 0 0 1 30,8
            A 22,22 0 0 1 40,45
            Z
        " />
        <path d="
            M 39,13
            L 30,22
        " />
        <circle cx="30" cy="8" r="3" />
        <rect x="10" y="52" width="40" height="5" />
    </symbol>

    <symbol id="n" viewBox="0 0 60 60">
        <path d="
            M 45,55
            L 45,20
            A 15,15 90 0 0 30,5
            L 30,55
            Z
        " />
        <path d="
            M 40,55
            L 40,20
            A 10,10 135 0 0 23,13
            L 17,19
            A 5,5 180 0 0 17,29
            L 25,29
            C 25,40 15,40 15,55
            Z
        " />
        <circle cx="27" cy="18" r="1" />
        <rect x="10" y="52" width="40" height="5" />
    </symbol>

    <symbol id="p" viewBox="0 0 60 60">
        <path d="
            M 25,20
            L 35,20
            L 40,55
            L 20,55
            Z
        " />
        <circle cx="30" cy="20" r="10" />
        <rect x="20" y="27" width="20" height="5" />
        <rect x="10" y="52" width="40" height="5" />
    </symbol>

    <use href="#k" x="0" y="0" height="60" width="60" fill="white" stroke="black" />
    <use href="#q" x="60" y="0" height="60" width="60" fill="white" stroke="black" />
    <use href="#r" x="120" y="0" height="60" width="60" fill="white" stroke="black" />
    <use href="#b" x="180" y="0" height="60" width="60" fill="white" stroke="black" />
    <use href="#n" x="240" y="0" height="60" width="60" fill="white" stroke="black" />
    <use href="#p" x="300" y="0" height="60" width="60" fill="white" stroke="black" />

    <use href="#k" x="0" y="60" height="60" width="60" fill="darkgray" stroke="black" />
    <use href="#q" x="60" y="60" height="60" width="60" fill="darkgray" stroke="black" />
    <use href="#r" x="120" y="60" height="60" width="60" fill="darkgray" stroke="black" />
    <use href="#b" x="180" y="60" height="60" width="60" fill="darkgray" stroke="black" />
    <use href="#n" x="240" y="60" height="60" width="60" fill="darkgray" stroke="black" />
    <use href="#p" x="300" y="60" height="60" width="60" fill="darkgray" stroke="black" />
</svg>