<svg viewBox="0 0 480 240" version="1.1" xmlns="http://www.w3.org/2000/svg">
    <style>
        .b {
            fill: #fff;
            stroke: #000;
        }

        .p {
            fill: red;
        }

        .t {
            font-size: 20;
            text-anchor: middle;
        }

        .r {
            transform-origin: 50% 50%;
            rotate: 180deg;
        }
    </style>

    <symbol id="u" viewBox="0 0 60 60">
        <path d="
            M 30, 5
            L 45,10
            L 50,55
            L 10,55
            L 15,10
            Z
        " />
    </symbol>

    <symbol id="k" viewBox="0 0 60 60">
        <use class="b" href="#u" />
        <text class="t" x="30,30" y="28,50" font-size="20">王将</text>
    </symbol>

    <symbol id="kr" viewBox="0 0 60 60">
        <use class="b r" href="#u" />
        <text class="t r" x="30,30" y="28,50" font-size="20">王将</text>
    </symbol>

    <symbol id="h" viewBox="0 0 60 60">
        <use class="b" href="#u" />
        <text class="t" x="30,30" y="28,50" font-size="20">玉将</text>
    </symbol>

    <symbol id="hr" viewBox="0 0 60 60">
        <use class="b r" href="#u" />
        <text class="t r" x="30,30" y="28,50" font-size="20">玉将</text>
    </symbol>

    <symbol id="r" viewBox="0 0 60 60">
        <use class="b" href="#u" />
        <text class="t" x="30,30" y="28,50" font-size="20">飛車</text>
    </symbol>

    <symbol id="rr" viewBox="0 0 60 60">
        <use class="b r" href="#u" />
        <text class="t r" x="30,30" y="28,50" font-size="20">飛車</text>
    </symbol>

    <symbol id="rp" viewBox="0 0 60 60">
        <use class="b" href="#u" />
        <text class="t p" x="30,30" y="28,50" font-size="20">龍王</text>
    </symbol>

    <symbol id="rpr" viewBox="0 0 60 60">
        <use class="b r" href="#u" />
        <text class="t p r" x="30,30" y="28,50" font-size="20">龍王</text>
    </symbol>

    <symbol id="b" viewBox="0 0 60 60">
        <use class="b" href="#u" />
        <text class="t" x="30,30" y="28,50" font-size="20">角行</text>
    </symbol>

    <symbol id="br" viewBox="0 0 60 60">
        <use class="b r" href="#u" />
        <text class="t r" x="30,30" y="28,50" font-size="20">角行</text>
    </symbol>

    <symbol id="bp" viewBox="0 0 60 60">
        <use class="b" href="#u" />
        <text class="t p" x="30,30" y="28,50" font-size="20">龍馬</text>
    </symbol>

    <symbol id="bpr" viewBox="0 0 60 60">
        <use class="b r" href="#u" />
        <text class="t p r" x="30,30" y="28,50" font-size="20">龍馬</text>
    </symbol>

    <symbol id="g" viewBox="0 0 60 60">
        <use class="b" href="#u" />
        <text class="t" x="30,30" y="28,50" font-size="20">金将</text>
    </symbol>

    <symbol id="gr" viewBox="0 0 60 60">
        <use class="b r" href="#u" />
        <text class="t r" x="30,30" y="28,50" font-size="20">金将</text>
    </symbol>

    <symbol id="s" viewBox="0 0 60 60">
        <use class="b" href="#u" />
        <text class="t" x="30,30" y="28,50" font-size="20">銀将</text>
    </symbol>

    <symbol id="sr" viewBox="0 0 60 60">
        <use class="b r" href="#u" />
        <text class="t r" x="30,30" y="28,50" font-size="20">銀将</text>
    </symbol>

    <symbol id="sp" viewBox="0 0 60 60">
        <use class="b" href="#u" />
        <text class="t p" x="30,30" y="28,50" font-size="20">成銀</text>
    </symbol>

    <symbol id="spr" viewBox="0 0 60 60">
        <use class="b r" href="#u" />
        <text class="t p r" x="30,30" y="28,50" font-size="20">成銀</text>
    </symbol>

    <symbol id="n" viewBox="0 0 60 60">
        <use class="b" href="#u" />
        <text class="t" x="30,30" y="28,50" font-size="20">桂馬</text>
    </symbol>

    <symbol id="nr" viewBox="0 0 60 60">
        <use class="b r" href="#u" />
        <text class="t r" x="30,30" y="28,50" font-size="20">桂馬</text>
    </symbol>

    <symbol id="np" viewBox="0 0 60 60">
        <use class="b" href="#u" />
        <text class="t p" x="30,30" y="28,50" font-size="20">成桂</text>
    </symbol>

    <symbol id="npr" viewBox="0 0 60 60">
        <use class="b r" href="#u" />
        <text class="t p r" x="30,30" y="28,50" font-size="20">成桂</text>
    </symbol>

    <symbol id="l" viewBox="0 0 60 60">
        <use class="b" href="#u" />
        <text class="t" x="30,30" y="28,50" font-size="20">香車</text>
    </symbol>

    <symbol id="lr" viewBox="0 0 60 60">
        <use class="b r" href="#u" />
        <text class="t r" x="30,30" y="28,50" font-size="20">香車</text>
    </symbol>

    <symbol id="lp" viewBox="0 0 60 60">
        <use class="b" href="#u" />
        <text class="t p" x="30,30" y="28,50" font-size="20">成香</text>
    </symbol>

    <symbol id="lpr" viewBox="0 0 60 60">
        <use class="b r" href="#u" />
        <text class="t p r" x="30,30" y="28,50" font-size="20">成香</text>
    </symbol>

    <symbol id="p" viewBox="0 0 60 60">
        <use class="b" href="#u" />
        <text class="t" x="30,30" y="28,50" font-size="20">歩兵</text>
    </symbol>

    <symbol id="pr" viewBox="0 0 60 60">
        <use class="b r" href="#u" />
        <text class="t r" x="30,30" y="28,50" font-size="20">歩兵</text>
    </symbol>

    <symbol id="pp" viewBox="0 0 60 60">
        <use class="b" href="#u" />
        <text class="t p" x="30,30" y="28,50" font-size="20">と金</text>
    </symbol>

    <symbol id="ppr" viewBox="0 0 60 60">
        <use class="b r" href="#u" />
        <text class="t p r" x="30,30" y="28,50" font-size="20">と金</text>
    </symbol>

    <use href="#k" x="0" y="0" height="60" width="60" />
    <use href="#r" x="60" y="0" height="60" width="60" />
    <use href="#b" x="120" y="0" height="60" width="60" />
    <use href="#g" x="180" y="0" height="60" width="60" />
    <use href="#s" x="240" y="0" height="60" width="60" />
    <use href="#n" x="300" y="0" height="60" width="60" />
    <use href="#l" x="360" y="0" height="60" width="60" />
    <use href="#p" x="420" y="0" height="60" width="60" />

    <use href="#kr" x="0" y="60" height="60" width="60" />
    <use href="#rr" x="60" y="60" height="60" width="60" />
    <use href="#br" x="120" y="60" height="60" width="60" />
    <use href="#gr" x="180" y="60" height="60" width="60" />
    <use href="#sr" x="240" y="60" height="60" width="60" />
    <use href="#nr" x="300" y="60" height="60" width="60" />
    <use href="#lr" x="360" y="60" height="60" width="60" />
    <use href="#pr" x="420" y="60" height="60" width="60" />

    <use href="#h" x="0" y="120" height="60" width="60" />
    <use href="#rp" x="60" y="120" height="60" width="60" />
    <use href="#bp" x="120" y="120" height="60" width="60" />
    <use href="#sp" x="240" y="120" height="60" width="60" />
    <use href="#np" x="300" y="120" height="60" width="60" />
    <use href="#lp" x="360" y="120" height="60" width="60" />
    <use href="#pp" x="420" y="120" height="60" width="60" />

    <use href="#hr" x="0" y="180" height="60" width="60" />
    <use href="#rpr" x="60" y="180" height="60" width="60" />
    <use href="#bpr" x="120" y="180" height="60" width="60" />
    <use href="#spr" x="240" y="180" height="60" width="60" />
    <use href="#npr" x="300" y="180" height="60" width="60" />
    <use href="#lpr" x="360" y="180" height="60" width="60" />
    <use href="#ppr" x="420" y="180" height="60" width="60" />
</svg>