<svg viewBox="0 0 9 9" version="1.1" xmlns="http://www.w3.org/2000/svg">
    <rect width="9" height="9" x="0" y="0" fill="#ee6" />

    <g stroke="black" stroke-width="0.025">
        <path d="M0,1 9,1" />
        <path d="M0,2 9,2" />
        <path d="M0,3 9,3" />
        <path d="M0,4 9,4" />
        <path d="M0,5 9,5" />
        <path d="M0,6 9,6" />
        <path d="M0,7 9,7" />
        <path d="M0,8 9,8" />

        <path d="M1 ,0 1 ,9" />
        <path d="M2,0 2,9" />
        <path d="M3,0 3,9" />
        <path d="M4,0 4,9" />
        <path d="M5,0 5,9" />
        <path d="M6,0 6,9" />
        <path d="M7,0 7,9" />
        <path d="M8,0 8,9" />
    </g>


    <circle cx="3" cy="3" r="0.05" />
    <circle cx="3" cy="6" r="0.05" />
    <circle cx="6" cy="3" r="0.05" />
    <circle cx="6" cy="6" r="0.05" />

</svg>